<?xml version="1.0" standalone="no"?>
<!DOCTYPE svg PUBLIC "-//W3C//DTD SVG 20010904//EN"
 "http://www.w3.org/TR/2001/REC-SVG-20010904/DTD/svg10.dtd">
<svg version="1.0" xmlns="http://www.w3.org/2000/svg"
 width="1280.000000pt" height="774.000000pt" viewBox="0 0 1280.000000 774.000000"
 preserveAspectRatio="xMidYMid meet">

<g transform="translate(0.000000,774.000000) scale(0.100000,-0.100000)"
fill="#000000" stroke="none">
<path d="M5875 7558 c-242 -99 -651 -265 -910 -370 -258 -105 -612 -248 -785
-318 -173 -70 -506 -205 -740 -300 -234 -95 -567 -230 -740 -300 -173 -70
-504 -205 -735 -298 -231 -94 -755 -306 -1165 -472 -410 -166 -756 -307 -770
-312 -22 -9 91 -68 1025 -535 578 -289 1052 -527 1054 -529 2 -2 14 -187 26
-411 21 -377 21 -410 6 -432 -50 -72 -61 -98 -61 -144 0 -49 20 -109 45 -137
12 -14 8 -67 -35 -410 -48 -387 -101 -857 -118 -1055 -11 -122 -7 -133 73
-198 140 -112 278 -151 467 -129 174 19 194 35 178 139 -47 296 -80 752 -87
1203 l-6 376 36 47 c20 26 39 63 43 83 11 58 -1 130 -28 171 l-25 38 24 284
c13 157 25 286 27 288 2 2 828 -408 1835 -911 1007 -504 1836 -916 1842 -916
11 0 2383 1184 2804 1400 94 48 950 478 1902 955 953 478 1729 872 1725 876
-4 3 -261 104 -572 224 -555 214 -1193 460 -1805 697 -170 66 -398 153 -505
195 -107 41 -332 128 -500 193 -168 65 -604 234 -970 375 -366 141 -863 333
-1105 427 -819 317 -1005 388 -1008 387 -1 -1 -200 -82 -442 -181z m355 -2223
c137 -28 239 -82 287 -154 43 -63 23 -133 -50 -175 -80 -46 -115 -51 -397 -51
l-265 0 -1405 -357 c-773 -196 -1499 -380 -1613 -409 -115 -28 -217 -59 -228
-68 -18 -15 -23 -48 -49 -366 -17 -193 -30 -363 -30 -378 0 -25 -3 -27 -22
-21 -12 3 -50 7 -85 7 l-62 1 -5 40 c-7 54 -48 848 -44 851 2 1 80 21 173 45
617 155 2372 613 3064 800 180 48 221 67 221 99 0 38 41 83 103 111 102 48
248 57 407 25z m-3842 -2455 l62 0 0 -279 c0 -371 23 -763 66 -1101 7 -63 14
-126 14 -139 l0 -23 -112 3 c-98 4 -120 8 -168 31 -30 15 -72 42 -93 59 l-39
32 7 71 c16 176 89 816 120 1065 19 151 35 279 35 284 0 5 10 7 23 3 12 -3 50
-6 85 -6z"/>
<path d="M3266 3358 c-3 -13 -19 -153 -35 -313 -17 -159 -48 -459 -70 -665
-22 -206 -58 -546 -81 -755 -22 -209 -42 -396 -45 -415 -6 -40 -26 -23 224
-190 886 -590 1720 -906 2641 -1002 180 -18 656 -16 850 5 927 100 1835 454
2750 1074 107 73 115 80 112 108 -2 26 -78 810 -132 1370 -63 644 -78 786 -83
791 -3 3 -689 -337 -1524 -756 l-1518 -762 -1537 766 c-845 421 -1539 766
-1542 766 -3 0 -8 -10 -10 -22z"/>
</g>
</svg>
